<svg width="208" height="210" viewBox="0 0 208 210" fill="none" xmlns="http://www.w3.org/2000/svg">
<path d="M123.983 82.4697C110.564 82.4697 97.456 82.4697 84.0589 82.4697C83.6143 75.0291 85.6372 68.6461 91.7948 64.2527C98.8046 59.2455 106.504 58.8683 114.047 62.8918C121.642 66.9376 124.235 73.8974 123.983 82.4697Z" fill="#020614"/>
<path d="M207.992 51.139C207.351 79.1602 202.708 106.475 189.949 132.076C176.408 159.24 155.832 180.346 129.809 196.626C123.109 200.818 115.999 204.413 109.046 208.223C105.819 209.995 102.496 209.995 99.1794 208.36C73.9008 195.884 51.648 179.799 34.3361 157.778C19.0959 138.394 9.57925 116.56 4.56379 92.8034C1.1655 76.6966 -0.131219 60.4025 0.0103768 43.986C0.0550911 38.1513 3.9825 33.7716 9.91461 33.7572C33.7623 33.7068 55.3518 26.1504 75.8832 15.2733C83.2089 11.3907 90.162 6.84532 97.1896 2.45845C102.302 -0.732651 105.805 -0.919939 110.82 2.50167C126.716 13.3428 143.648 22.2246 162.197 28.0449C173.308 31.5313 184.666 33.714 196.411 33.6924C204.079 33.678 208.066 37.6614 207.999 45.0737C207.977 47.0619 207.992 49.0428 207.992 51.139ZM103.919 148.695C110.44 148.695 116.961 148.695 123.482 148.695C123.668 148.695 123.854 148.695 124.041 148.687C133.483 148.435 140.719 141.671 140.853 132.573C141.025 120.961 140.995 109.342 140.846 97.7305C140.779 92.4072 138.55 87.7971 133.826 84.9085C131.448 83.4606 130.845 81.9191 130.748 79.3619C130.308 68.1318 125.255 59.7182 114.047 55.4898C103.845 51.6432 91.6599 54.1572 84.3565 61.5335C79.0132 66.9216 77.2246 73.5848 77.1799 80.8314C77.1724 82.0992 77.1724 83.1004 75.6969 83.9072C69.8318 87.1271 67.1415 92.2199 67.1192 98.6526C67.0819 109.638 67.0744 120.623 67.1192 131.608C67.1564 141.772 74.348 148.644 84.9229 148.695C91.25 148.716 97.5845 148.695 103.919 148.695Z" fill="#020614"/>
</svg>
