<svg width="48" height="50" viewBox="0 0 48 50" fill="none" xmlns="http://www.w3.org/2000/svg">
<g clip-path="url(#clip0_9_532)">
<path d="M47.0187 0H42.6859V4.49291H23.0349L21.0579 18.7895C22.2521 18.6223 23.3524 18.4551 25.2536 18.4551C25.4809 18.4551 25.7082 18.4696 25.9319 18.4696L27.8187 5.78699H47.0187V0Z" fill="white"/>
<path d="M40.8135 21.2396C37.7182 19.3675 33.8399 18.5133 29.9761 18.5133C29.1319 18.5133 28.4501 18.5424 27.8476 18.6042C30.9105 18.9386 33.8544 19.851 36.3292 21.4504C40.3734 23.9331 43.6961 28.7277 43.6961 35.747C43.6961 41.5631 41.3872 46.5867 37.5378 49.9964C43.9089 47.2846 47.9964 41.454 47.9964 34.3003C48.0144 27.8771 44.7675 23.5078 40.8135 21.2396Z" fill="white"/>
<path d="M29.2077 46.0705C24.6331 46.0705 20.5421 44.5038 18.446 43.2534L17.1328 47.3028C19.2144 48.048 21.7506 48.626 24.4672 48.626C27.6383 48.626 30.5966 47.5463 32.8009 45.5798C31.6537 45.9033 30.4451 46.0705 29.2077 46.0705Z" fill="white"/>
<path d="M9.58918 25.4998H11.3425V37.8117H9.52424V28.5932L9.61804 29.1421L6.32785 36.1069H5.02548L1.7389 29.3021L1.83269 28.5932V37.8117H0V25.4998H1.75333L5.67125 33.635L9.58918 25.4998Z" fill="#F68A1F"/>
<path d="M16.5267 37.8117C16.5267 37.8117 16.2453 37.6554 15.6825 37.3609C15.1197 37.0665 14.6976 36.6303 14.4018 36.056C14.106 35.4816 13.9653 34.791 13.9653 33.9767V33.0062C13.9653 32.1628 14.106 31.4322 14.3874 30.8433C14.6688 30.2544 15.0764 29.7892 15.6248 29.4802C16.1732 29.1712 16.8081 29.0149 17.5657 29.0149C18.2836 29.0149 18.8897 29.1966 19.3948 29.5492C19.8999 29.9018 20.2823 30.4217 20.5493 31.0941C20.8162 31.7666 20.9425 32.5845 20.9425 33.526V34.0894H15.1702V32.7408H19.3371C19.2794 32.0392 19.1134 31.5049 18.8032 31.1123C18.4965 30.7197 18.0744 30.5343 17.5513 30.5343C16.9163 30.5343 16.4257 30.7452 16.0721 31.1668C15.7186 31.5885 15.5526 32.1774 15.5526 32.9371V34.0203C15.5526 34.7219 15.7366 35.2708 16.1154 35.6488C16.4942 36.0269 17.0174 36.2123 17.7064 36.2123C18.0455 36.2123 18.3811 36.1432 18.7202 36.0014C19.0593 35.8597 19.3551 35.6779 19.6221 35.4271L20.7333 36.5358C20.3112 36.9429 19.8313 37.2519 19.3118 37.4773C18.7923 37.7026 18.2548 37.8153 17.7209 37.8153C16.9199 37.8117 16.5267 37.8117 16.5267 37.8117Z" fill="#F68A1F"/>
<path d="M24.9614 37.4118C24.5141 37.1392 24.1677 36.7248 23.9224 36.1977C23.6771 35.667 23.5616 35.0236 23.5616 34.2821V32.3664C23.5616 31.6212 23.6771 30.9778 23.908 30.4507C24.1389 29.92 24.4708 29.5202 24.9181 29.2366C25.3655 28.9495 25.885 28.8222 26.5055 28.8222C27.025 28.8222 27.5012 28.9495 27.9341 29.2221C28.3671 29.4947 28.7134 29.8655 28.9731 30.3526L28.8 32.1265C28.8 31.7557 28.7278 31.4395 28.5979 31.1814C28.4681 30.9233 28.266 30.7234 28.0063 30.5816C27.7465 30.4398 27.4435 30.3817 27.0683 30.3817C26.5055 30.3817 26.0582 30.5525 25.7407 30.9124C25.4232 31.2686 25.2645 31.7557 25.2645 32.3991V34.2857C25.2645 34.9146 25.4232 35.4017 25.7407 35.7434C26.0582 36.0851 26.4911 36.2595 27.0683 36.2595C27.4291 36.2595 27.7465 36.1868 28.0063 36.0451C28.266 35.9033 28.4536 35.7034 28.5979 35.4308C28.7423 35.1581 28.8 34.8455 28.8 34.4711L28.9154 36.2995C28.7423 36.7285 28.4536 37.0847 28.064 37.3864C27.6744 37.6881 27.1837 37.8153 26.5921 37.8153C25.9571 37.8262 25.4088 37.6808 24.9614 37.4118ZM28.8144 25.4998H30.5461V37.6808H28.8144V25.4998Z" fill="#F68A1F"/>
<path d="M32.5808 33.8022C33.0029 33.8022 33.4214 33.8022 33.8435 33.8022C33.9085 33.8277 33.9301 33.8786 33.9301 33.944C33.9301 34.2857 33.9301 34.6274 33.9301 34.9691C33.9301 34.9836 33.9301 34.9982 33.9301 35.0164C33.9518 35.0164 33.9662 35.0164 33.9806 35.0164C34.3233 35.0164 34.6661 35.0164 35.0088 35.0164C35.099 35.0164 35.1387 35.06 35.1387 35.1508C35.1387 35.5434 35.1387 35.9397 35.1387 36.3322C35.1387 36.3504 35.1387 36.3686 35.1315 36.3831C35.1134 36.4377 35.0737 36.4631 35.0016 36.4631C34.6625 36.4631 34.3197 36.4631 33.9806 36.4631C33.9662 36.4631 33.9518 36.4631 33.9337 36.4631C33.9337 36.4813 33.9337 36.4958 33.9337 36.5104C33.9337 36.8484 33.9337 37.1865 33.9337 37.5245C33.9337 37.5391 33.9337 37.5536 33.9337 37.5645C33.9301 37.6336 33.8832 37.6736 33.8147 37.6736C33.4142 37.6736 33.0138 37.6736 32.6169 37.6736C32.552 37.6736 32.5051 37.6299 32.5015 37.5645C32.5015 37.55 32.5015 37.5354 32.5015 37.5245C32.5015 37.1865 32.5015 36.8448 32.5015 36.5067C32.5015 36.4922 32.5015 36.4776 32.5015 36.4595C32.4798 36.4595 32.4654 36.4595 32.451 36.4595C32.1118 36.4595 31.7727 36.4595 31.4372 36.4595C31.3687 36.4595 31.3218 36.4377 31.2965 36.3722C31.2965 35.9469 31.2965 35.5253 31.2965 35.1C31.3218 35.0345 31.3723 35.0127 31.4372 35.0127C31.7763 35.0127 32.1154 35.0127 32.4546 35.0127C32.469 35.0127 32.4834 35.0127 32.5015 35.0127C32.5015 34.9909 32.5015 34.9764 32.5015 34.9618C32.5015 34.6201 32.5015 34.2784 32.5015 33.9404C32.4943 33.8786 32.5159 33.8277 32.5808 33.8022Z" fill="#00A651"/>
</g>
<defs>
<clipPath id="clip0_9_532">
<rect width="48" height="50" fill="white"/>
</clipPath>
</defs>
</svg>
